<?xml version="1.0" encoding="UTF-8" standalone="no"?>
<!-- Created with Inkscape (http://www.inkscape.org/) -->

<svg
   width="200mm"
   height="200mm"
   viewBox="0 0 200 200"
   version="1.1"
   id="svg1"
   xml:space="preserve"
   inkscape:export-filename="volume-loud.svg"
   inkscape:export-xdpi="96"
   inkscape:export-ydpi="96"
   xmlns:inkscape="http://www.inkscape.org/namespaces/inkscape"
   xmlns:sodipodi="http://sodipodi.sourceforge.net/DTD/sodipodi-0.dtd"
   xmlns="http://www.w3.org/2000/svg"
   xmlns:svg="http://www.w3.org/2000/svg"><sodipodi:namedview
     id="namedview1"
     pagecolor="#ffffff"
     bordercolor="#000000"
     borderopacity="0.25"
     inkscape:showpageshadow="2"
     inkscape:pageopacity="0.0"
     inkscape:pagecheckerboard="0"
     inkscape:deskcolor="#d1d1d1"
     inkscape:document-units="mm"><inkscape:page
       x="0"
       y="0"
       width="200"
       height="200"
       id="page2"
       margin="0"
       bleed="0" /></sodipodi:namedview><defs
     id="defs1" /><g
     inkscape:label="Layer 1"
     inkscape:groupmode="layer"
     id="layer1"><path
       style="fill:#000000;stroke-width:0.792783"
       d="m 103.73045,167.18459 c 0.13597,-0.22001 0.0498,-0.2687 -0.26317,-0.14862 -0.29843,0.11452 -0.46539,0.0372 -0.46539,-0.21564 0,-0.21683 -0.1453,-0.48403 -0.32289,-0.59379 -0.20005,-0.12363 -0.24697,-0.0767 -0.12333,0.12333 0.27739,0.44882 -0.0497,0.88902 -0.52509,0.70661 -0.27136,-0.10414 -0.37191,-0.52668 -0.32298,-1.35733 0.0469,-0.79685 -0.0349,-1.16549 -0.24106,-1.08636 -0.20714,0.0795 -0.27183,-0.22524 -0.19236,-0.90603 0.0686,-0.58745 0.009,-0.95746 -0.13904,-0.86586 -0.14354,0.0887 -0.28325,-0.48583 -0.31372,-1.29029 -0.0302,-0.79763 -0.0632,-1.67048 -0.0733,-1.93967 -0.0101,-0.26918 -0.11836,-0.48943 -0.24054,-0.48943 -0.12218,0 -0.22475,-0.3461 -0.22791,-0.76911 -0.003,-0.42301 -0.10214,-1.58716 -0.21997,-2.58701 -0.11781,-0.99984 -0.2016,-2.15989 -0.18619,-2.57789 0.0154,-0.418 -0.0806,-0.82715 -0.21343,-0.90922 -0.1328,-0.0821 -0.17548,-0.40148 -0.0949,-0.70979 0.0806,-0.30831 -0.01,-0.74868 -0.20034,-0.97859 -0.24025,-0.28948 -0.2504,-0.41802 -0.033,-0.41802 0.17265,0 0.31391,-0.18879 0.31391,-0.41952 0,-0.23073 -0.0984,-0.41952 -0.21867,-0.41952 -0.12027,0 -0.24529,-0.32154 -0.27781,-0.71454 -0.0325,-0.393 0.0572,-0.64265 0.19935,-0.55479 0.14217,0.0879 0.33753,0.0319 0.43415,-0.12448 0.0966,-0.15633 0.0502,-0.28424 -0.10312,-0.28424 -0.15334,0 -0.2802,-0.22024 -0.28189,-0.48943 -0.007,-1.17612 -0.25545,-2.78439 -0.53554,-3.47251 -0.16693,-0.41013 -0.31821,-1.35403 -0.33618,-2.09758 -0.0559,-2.31236 -0.16142,-3.31318 -0.38802,-3.67983 -0.12017,-0.19442 -0.0971,-0.50529 0.0513,-0.69083 0.14839,-0.18554 0.25362,-1.01014 0.23384,-1.83246 -0.0197,-0.82231 0.0584,-1.5534 0.17379,-1.62464 0.3647,-0.22521 0.22697,-0.65587 -0.20976,-0.65587 -0.47862,0 -0.52364,-0.24138 -0.15401,-0.82567 0.14131,-0.22339 0.17164,-0.53803 0.0674,-0.6992 -0.24278,-0.37529 -0.32561,-5.23624 -0.0956,-5.60687 0.2624,-0.42271 0.24753,-0.78185 -0.0579,-1.39838 -0.35229,-0.71116 -0.44386,-2.63335 -0.13457,-2.82451 0.33741,-0.20853 0.29024,-1.51047 -0.0547,-1.51047 -0.18573,0 -0.19875,-0.17544 -0.0363,-0.48943 0.13927,-0.26919 0.19925,-0.74114 0.1333,-1.04879 -0.066,-0.30764 -0.11344,-0.74813 -0.10552,-0.97886 0.0561,-1.63704 0.003,-2.35738 -0.18471,-2.49647 -0.25672,-0.19034 -0.27227,-0.88531 -0.0286,-1.27916 0.31356,-0.50687 -0.0729,-7.61198 -0.44694,-8.2172 -0.10636,-0.1721 -0.0794,-0.31292 0.0599,-0.31292 0.13934,0 0.19803,-0.47195 0.13046,-1.04879 -0.0675,-0.57682 -0.16017,-1.76184 -0.20575,-2.63336 -0.0456,-0.87152 -0.17063,-1.72655 -0.27786,-1.90007 -0.10724,-0.17351 -0.0404,-0.50179 0.14862,-0.7295 0.18899,-0.22771 0.27483,-0.4828 0.19076,-0.56687 -0.0841,-0.0841 0.0174,-0.48103 0.22551,-0.88214 0.2081,-0.40111 0.31603,-0.83014 0.23984,-0.95341 -0.17048,-0.27584 -0.48663,-6.35518 -0.41713,-8.02095 0.0278,-0.66718 -0.0496,-1.15115 -0.17199,-1.07549 -0.19568,0.12094 -0.26596,-1.26052 -0.0828,-1.62691 0.18203,-0.36406 0.15466,-0.88453 -0.0708,-1.34633 -0.14446,-0.29591 -0.14324,-0.64555 0.003,-0.83903 0.13784,-0.18245 0.23985,-1.5588 0.22669,-3.05856 -0.0132,-1.49976 0.0505,-2.72684 0.14151,-2.72684 0.091,0 0.15503,-0.81749 0.14233,-1.81665 -0.0127,-0.99915 -0.1,-1.8172 -0.1939,-1.81789 -0.22041,-0.002 -0.0773,-2.95591 0.1619,-3.34298 0.0999,-0.16173 0.0275,-0.29406 -0.16106,-0.29406 -0.18853,0 -0.2704,-0.0724 -0.18191,-0.16089 0.0885,-0.0885 0.0553,-0.52898 -0.0737,-0.97887 -0.12902,-0.44988 -0.1322,-0.81797 -0.007,-0.81797 0.3434,0 0.55905,-1.09398 0.25294,-1.28316 -0.16469,-0.10179 -0.15015,-0.30581 0.0379,-0.53243 0.17207,-0.20734 0.19281,-0.40974 0.0476,-0.46454 -0.39,-0.14718 -0.71086,-1.91501 -0.34759,-1.91501 0.16605,0 0.3019,-0.18878 0.3019,-0.41952 0,-0.23073 -0.0964,-0.41951 -0.21429,-0.41951 -0.11786,0 -0.20476,-0.66073 -0.19311,-1.4683 0.0141,-0.9793 0.13206,-1.44501 0.35413,-1.39838 0.42024,0.0883 0.45511,-1.80048 0.0358,-1.94024 -0.20578,-0.0686 -0.1966,-0.35521 0.0299,-0.93225 0.34974,-0.89118 0.54171,-3.44653 0.29371,-3.90965 -0.0824,-0.15382 -0.17138,-0.65724 -0.19779,-1.11871 -0.0264,-0.46146 -0.0616,-0.87762 -0.0782,-0.9248 -0.0166,-0.0472 -0.30987,0.11014 -0.65174,0.34959 -0.34187,0.23946 -0.84529,0.43538 -1.11871,0.43538 -0.27342,0 -0.49712,0.13592 -0.49712,0.30205 0,0.40487 -3.225219,3.61341 -3.632194,3.61341 -0.176458,0 -0.766256,0.47195 -1.310652,1.04878 -0.606709,0.64285 -1.194819,1.01492 -1.519439,0.96129 -0.291292,-0.0481 -0.529619,0.0631 -0.529619,0.24714 0,0.41606 -1.413523,1.65745 -1.887813,1.65791 -0.192274,1.9e-4 -0.349593,0.19308 -0.349593,0.42864 0,0.23556 -0.188778,0.50073 -0.419509,0.58927 -0.23074,0.0885 -0.419517,0.34373 -0.419517,0.56708 0,0.22335 -0.126742,0.32777 -0.281652,0.23202 -0.154909,-0.0957 -0.357156,0.0227 -0.449436,0.26318 -0.09228,0.24048 -0.374566,0.44121 -0.627297,0.44608 -0.505621,0.01 -1.997725,1.21473 -1.997725,1.61333 0,0.13783 -0.503417,0.47762 -1.118711,0.75508 -0.615287,0.27745 -1.118704,0.6112 -1.118704,0.74166 0,0.13046 -0.188777,0.2372 -0.419508,0.2372 -0.230732,0 -0.419517,0.12585 -0.419517,0.27968 0,0.15382 -0.142558,0.27968 -0.316788,0.27968 -0.351417,0 -1.361271,1.06913 -1.361271,1.44116 0,0.13029 -0.182522,0.23689 -0.405611,0.23689 -0.223089,0 -0.506263,0.17064 -0.629272,0.37919 -0.123008,0.20855 -0.686129,0.59596 -1.251375,0.8609 -0.565246,0.26494 -1.320371,0.9115 -1.678059,1.43679 -0.35768,0.5253 -0.807655,0.95595 -0.999929,0.95699 -0.192281,8e-4 -0.349593,0.11801 -0.349593,0.2599 0,0.14189 -0.440105,0.40324 -0.978,0.58076 -0.537903,0.17752 -1.167174,0.59285 -1.398382,0.92294 -0.231207,0.3301 -0.42038,0.50027 -0.42038,0.37814 0,-0.12212 -0.216121,-0.006 -0.480268,0.25822 -0.264147,0.26415 -1.333904,1.02743 -2.377246,1.6962 -1.043341,0.66877 -1.896978,1.33414 -1.896978,1.4786 0,0.14446 -0.234172,0.33698 -0.52039,0.42783 -0.28621,0.0908 -1.067196,0.72004 -1.73552,1.39821 -0.668324,0.67818 -1.313688,1.17215 -1.434144,1.0977 -0.120455,-0.0744 -0.144056,0.0599 -0.05248,0.29869 0.09161,0.23872 0.05867,0.44659 -0.07309,0.46193 -0.131824,0.0154 -1.246516,0.0679 -2.477089,0.11676 -2.96878,0.1179 -4.746627,0.32251 -5.365687,0.61752 -0.279131,0.13301 -1.168149,0.21362 -1.97559,0.17911 -1.039972,-0.0445 -1.598979,0.0682 -1.916932,0.38611 -0.331391,0.33139 -0.569306,0.37369 -0.909163,0.16162 -0.253176,-0.15798 -0.71203,-0.19736 -1.019669,-0.0875 -0.307648,0.10984 -0.88561,0.14964 -1.284364,0.0885 -0.398761,-0.0612 -1.058309,0.0155 -1.465664,0.17033 -0.407348,0.15488 -0.726926,0.19077 -0.710159,0.0798 0.08272,-0.54782 -0.07309,-0.71662 -0.31544,-0.34166 -0.180739,0.27968 -0.272543,0.30298 -0.275397,0.0699 -0.0055,-0.42919 -1.018456,-0.46531 -1.277878,-0.0456 -0.103355,0.16722 -0.425415,0.24193 -0.715701,0.16602 -0.347302,-0.0908 -0.527787,0.008 -0.527787,0.28956 0,0.36601 -0.06659,0.3723 -0.462366,0.0438 -0.569194,-0.47251 -1.77504,-0.52889 -1.77504,-0.083 0,0.41618 -2.194636,0.78057 -2.61826,0.43473 -0.393069,-0.32089 -4.843409,-0.10402 -5.542445,0.27009 -0.284839,0.15245 -0.509252,0.16191 -0.509252,0.0215 0,-0.13808 -0.346097,-0.19164 -0.76911,-0.11903 -0.423013,0.0726 -1.146673,0.11004 -1.608136,0.0832 -0.461471,-0.0269 -1.751471,-0.0507 -2.866678,-0.053 -1.115215,-0.002 -2.027652,-0.0947 -2.027652,-0.2053 0,-0.11065 -0.975376,-0.21623 -2.167491,-0.2346 -1.192123,-0.0184 -2.167492,-0.0545 -2.167492,-0.0804 0,-0.0258 -0.410455,-0.0893 -0.91212,-0.141 -0.508919,-0.0525 -0.84161,0.0201 -0.752604,0.16411 0.186201,0.30128 -0.247118,0.3506 -0.536642,0.061 -0.108366,-0.10836 -0.521469,-0.24047 -0.918011,-0.29358 -0.938876,-0.12573 -2.613963,-1.46915 -2.61397,-2.0964 -8e-6,-0.26919 -0.188794,-0.48943 -0.419525,-0.48943 -0.230732,0 -0.419517,-0.18484 -0.419517,-0.41074 0,-0.2746 -0.162211,-0.34994 -0.489432,-0.22731 -0.428594,0.16063 -0.441723,0.12477 -0.105591,-0.28846 0.21111,-0.25952 0.557215,-0.47187 0.76911,-0.47187 0.54614,0 0.478611,-0.25427 -0.217151,-0.81767 -0.554535,-0.44904 -0.563177,-0.50288 -0.108698,-0.67727 0.385126,-0.14779 0.455961,-0.0811 0.32206,0.30314 -0.140339,0.40271 -0.09321,0.39111 0.258217,-0.0635 0.259065,-0.33516 0.314901,-0.59445 0.140521,-0.65258 -0.371197,-0.12374 -0.379529,-0.88887 -0.0097,-0.88887 0.153823,0 0.279677,-0.20224 0.279677,-0.44943 0,-0.2846 0.153864,-0.39039 0.419509,-0.28846 0.540615,0.20746 0.53455,-0.22493 -0.0149,-1.06353 -0.405857,-0.61943 -0.393822,-0.69148 0.183085,-1.09556 0.465055,-0.32574 0.753271,-0.35987 1.167373,-0.13825 0.415782,0.22252 0.498993,0.21197 0.341253,-0.0433 -0.150914,-0.2442 -0.02489,-0.28552 0.455683,-0.14943 0.475369,0.13462 0.551967,0.1106 0.26934,-0.0845 -0.335347,-0.23148 -0.325603,-0.34196 0.06453,-0.73214 0.359384,-0.35938 0.658762,-0.4049 1.373821,-0.20886 0.588316,0.16128 1.512589,0.13312 2.592359,-0.079 0.922926,-0.1813 2.55666,-0.35583 3.630516,-0.38786 1.534327,-0.0457 2.083924,-0.18173 2.5663,-0.6349 0.337607,-0.31716 0.749544,-0.49279 0.91541,-0.39028 0.357482,0.22094 3.935135,0.35617 3.93504,0.14875 -7.2e-5,-0.16239 1.720385,-0.26678 4.67373,-0.28359 1.109285,-0.006 2.092288,-0.13351 2.184465,-0.28264 0.108056,-0.17484 0.347183,-0.17505 0.673191,-5.7e-4 0.278085,0.14882 0.569702,0.2065 0.648037,0.12816 0.07833,-0.0783 1.447811,-0.19806 3.043286,-0.26608 1.595474,-0.068 3.313942,-0.1828 3.818809,-0.2551 0.628058,-0.0899 0.857299,-0.0333 0.725896,0.1793 -0.117181,0.18961 -0.06453,0.23194 0.135019,0.1086 0.179882,-0.11117 1.300551,-0.26752 2.490375,-0.34742 1.189824,-0.0799 2.205268,-0.2601 2.256537,-0.40043 0.05129,-0.14033 0.216025,-0.25514 0.366107,-0.25514 0.150081,0 0.191972,0.1309 0.0931,0.29089 -0.195001,0.31551 0.875177,0.12313 2.104497,-0.37832 0.384555,-0.15687 0.762118,-0.29769 0.839025,-0.31293 0.0769,-0.0152 0.311231,-0.1363 0.5207,-0.26902 0.242314,-0.15353 0.469676,-0.10109 0.62499,0.14412 0.264988,0.41836 0.343267,0.17988 0.263632,-0.8032 -0.03782,-0.46647 0.09892,-0.62928 0.528398,-0.62928 0.318651,0 0.579365,0.12001 0.579365,0.26667 0,0.32733 1.731516,-0.55116 2.04155,-1.03577 0.123008,-0.19228 0.406182,-0.3496 0.629271,-0.3496 0.223089,0 0.390715,-0.0944 0.372497,-0.20975 -0.09407,-0.59576 0.108999,-0.87252 0.872148,-1.18863 0.461463,-0.19114 0.839025,-0.49391 0.839025,-0.67282 0,-0.17891 0.377563,-0.54831 0.839034,-0.82091 0.461463,-0.27259 0.839025,-0.40203 0.839025,-0.28764 0,0.11438 0.377563,-0.15376 0.839026,-0.59588 0.461471,-0.4421 0.839033,-0.95366 0.839033,-1.13678 0,-0.44317 0.642265,-0.95501 1.375589,-1.09623 0.845574,-0.16284 2.260199,-1.22778 2.260199,-1.70149 0,-0.26499 0.307513,-0.40109 0.908941,-0.40231 0.984105,-0.002 2.56324,-0.88492 2.611687,-1.46025 0.08306,-0.98639 0.144675,-1.10351 0.507326,-0.96435 0.617498,0.23696 0.767635,-0.13411 0.232753,-0.57526 -0.437577,-0.36089 -0.439154,-0.38577 -0.01609,-0.25403 0.518107,0.16134 1.185448,-0.44802 0.857054,-0.78259 -0.114034,-0.11617 0.107303,-0.18505 0.491858,-0.15306 1.196047,0.0995 1.371759,0.0199 1.804428,-0.81676 0.235853,-0.45607 0.911137,-1.03929 1.538189,-1.32846 0.709984,-0.32741 1.1204,-0.70494 1.124982,-1.03482 0.0048,-0.314 0.153388,-0.46326 0.376881,-0.3775 0.203317,0.078 0.51316,-0.0879 0.688547,-0.36875 0.17538,-0.28082 0.606836,-0.55443 0.958792,-0.608 0.351955,-0.0536 0.605337,-0.26109 0.563073,-0.46115 -0.04225,-0.20006 0.04352,-0.28936 0.190617,-0.19844 0.147109,0.0909 0.444688,-0.0877 0.661292,-0.39694 0.216596,-0.30924 0.458299,-0.49777 0.537118,-0.41895 0.178693,0.17869 3.0228,-2.55212 3.0228,-2.90239 0,-0.14062 0.251709,-0.3215 0.559348,-0.40195 0.356752,-0.0933 0.560909,-0.38369 0.563637,-0.80172 0.0032,-0.46565 0.07278,-0.54743 0.24076,-0.28241 0.190394,0.30035 0.269593,0.28673 0.406451,-0.0699 0.09349,-0.24363 0.332842,-0.44296 0.531894,-0.44296 0.199052,0 0.59641,-0.31227 0.883025,-0.69393 0.286615,-0.38166 0.614906,-0.63596 0.729534,-0.56512 0.392634,0.24266 2.765606,-2.134629 2.589315,-2.594033 -0.09856,-0.256836 -0.04963,-0.361632 0.119837,-0.256873 0.157471,0.09732 0.413841,-0.102278 0.569718,-0.443553 0.180611,-0.395424 0.743756,-0.755661 1.552513,-0.993112 1.223255,-0.35915 1.913555,-1.219707 1.288355,-1.606106 -0.14362,-0.08876 0.19556,-0.471291 0.75373,-0.850074 0.79393,-0.538774 1.10001,-0.618015 1.40607,-0.364007 0.31398,0.260572 0.39123,0.209205 0.39123,-0.260131 0,-0.431898 0.12239,-0.537853 0.46807,-0.405205 0.3651,0.140103 0.42522,0.06795 0.27327,-0.328011 -0.16476,-0.429367 -0.12913,-0.453132 0.23112,-0.154148 0.35168,0.291863 0.42593,0.274383 0.42593,-0.10028 0,-0.43565 0.93371,-1.572463 1.29153,-1.572463 0.0951,0 0.62994,-0.381939 1.18862,-0.848755 0.55869,-0.466815 1.16635,-0.968877 1.35036,-1.115692 0.52362,-0.417774 1.20365,-0.0021 1.20365,0.735827 0,0.81604 0.30848,0.850679 0.97887,0.109916 0.73965,-0.81731 1.19636,-0.69806 2.40955,0.629147 0.76814,0.840324 1.0864,1.045155 1.0864,0.699191 0,-0.274076 -0.20914,-0.48931 -0.47545,-0.48931 -0.35923,0 -0.39657,-0.07888 -0.15274,-0.32271 0.39655,-0.396553 2.17017,0.851759 2.44629,1.721761 0.19023,0.599345 -0.39349,1.394628 -1.02901,1.401993 -0.27347,0.0032 -0.26049,0.07589 0.05,0.279676 0.26311,0.172717 0.31524,0.353597 0.13984,0.48515 -0.51775,0.38831 -0.41206,1.25191 0.13568,1.108673 0.93559,-0.24466 1.29448,0.229841 0.92141,1.218211 -0.26532,0.702911 -0.25914,0.958192 0.0302,1.247543 0.3781,0.378093 0.39214,1.397476 0.0374,2.718284 -0.13904,0.517761 -0.0998,0.769111 0.11997,0.769111 0.17958,0 0.24408,0.13335 0.14335,0.29634 -0.17993,0.29113 -0.36167,3.25094 -0.50607,8.2416 -0.0402,1.3887 -0.16811,2.67871 -0.28428,2.86668 -0.11618,0.18798 -0.0779,0.34177 0.085,0.34177 0.1629,0 0.29617,0.13328 0.29617,0.29618 0,0.1629 -0.0944,0.23782 -0.20975,0.16648 -0.11537,-0.0713 -0.19886,0.74457 -0.18554,1.81313 0.0133,1.06856 -0.0814,2.00812 -0.21052,2.08791 -0.1291,0.0798 -0.11731,0.36445 0.0262,0.63259 0.14491,0.27076 0.15619,0.65698 0.0254,0.86863 -0.12987,0.21012 -0.12021,0.68442 0.0215,1.05719 0.14138,0.37184 0.19192,0.78147 0.11231,0.91027 -0.26398,0.42714 -0.34933,1.95628 -0.10918,1.95628 0.12984,0 0.13314,0.28317 0.007,0.62927 -0.1258,0.34611 -0.18924,1.73569 -0.14098,3.08797 0.0483,1.35227 -0.003,2.40259 -0.11394,2.33404 -0.19745,-0.12202 -0.40696,4.81015 -0.36073,8.49188 0.0251,2.0033 -0.0541,3.06419 -0.22101,2.96098 -0.10254,-0.0633 -0.18326,0.53449 -0.1794,1.32858 0.004,0.79408 -0.085,1.88429 -0.19755,2.42266 -0.15762,0.75412 -0.098,1.05913 0.25974,1.32846 0.25538,0.19228 0.34003,0.3496 0.18812,0.3496 -0.30947,0 -0.35653,1.2457 -0.0583,1.54376 0.10554,0.10549 0.0821,0.48056 -0.0521,0.83348 -0.13419,0.35292 -0.15762,0.72803 -0.0521,0.83358 0.10555,0.10554 0.003,0.14995 -0.22761,0.0987 -0.50058,-0.11125 -0.44203,1.07591 0.0955,1.93639 0.13523,0.21649 0.0469,0.41782 -0.2297,0.52399 -0.41089,0.15768 -0.41128,0.21445 -0.005,0.66398 0.4032,0.44552 0.40397,0.53244 0.008,0.92823 -0.39578,0.39578 -0.39047,0.4659 0.0567,0.74867 0.35244,0.22288 0.39349,0.35393 0.14374,0.45889 -0.43902,0.1845 -0.4538,1.00292 -0.0258,1.43089 0.24395,0.24395 0.24455,0.4192 0.002,0.71095 -0.17673,0.21295 -0.22803,0.48047 -0.11401,0.5945 0.27909,0.27909 0.2825,1.9384 0.005,2.13654 -0.25795,0.18378 -0.34515,2.01347 -0.14907,3.12827 0.0744,0.42301 0.0193,0.76911 -0.12245,0.76911 -0.14175,0 -0.15978,0.15732 -0.0401,0.34959 0.26779,0.43017 0.12805,1.69176 -0.21077,1.90278 -0.36739,0.22883 -0.49259,2.86148 -0.15665,3.29409 0.49224,0.63387 0.15788,10.41855 -0.50483,14.77333 -0.0998,0.65609 -0.0109,0.9327 0.3466,1.07881 0.43584,0.17809 0.42849,0.21803 -0.0785,0.42649 -0.47607,0.19576 -0.48648,0.23293 -0.0699,0.24966 0.53291,0.0214 0.65655,0.44271 0.21078,0.71821 -0.25457,0.15733 -0.16247,2.17871 0.14657,3.21691 0.0687,0.23073 -0.0623,0.78 -0.29103,1.22059 -0.46583,0.89722 -0.51352,1.11011 -0.20616,0.92027 0.20646,-0.12752 0.19924,0.69779 -0.0424,4.85104 -0.0671,1.15366 -0.022,2.55989 0.10044,3.12496 0.12237,0.56506 0.11291,1.13697 -0.021,1.27089 -0.27004,0.27004 -0.31389,1.12017 -0.13351,2.58851 0.0656,0.53422 -0.005,1.203 -0.15621,1.48617 -0.16053,0.29994 -0.17312,0.65333 -0.0301,0.84657 0.13495,0.18245 0.20346,0.64636 0.15222,1.03091 -0.28044,2.10488 -0.27311,3.51652 0.0193,3.727 0.20013,0.14403 0.21571,0.27569 0.0414,0.34957 -0.17061,0.0723 -0.26699,1.72738 -0.24713,4.24377 0.0179,2.26888 -0.0511,4.2511 -0.15348,4.40493 -0.10232,0.15382 -0.17151,0.84601 -0.15377,1.53822 0.0178,0.69219 -0.11708,1.6361 -0.29961,2.09756 -0.18254,0.46147 -0.27483,0.99635 -0.20508,1.18862 0.0698,0.19228 -0.01,0.3496 -0.17617,0.3496 -0.16664,0 -0.30491,0.28317 -0.30726,0.62927 -0.002,0.39566 -0.0833,0.50497 -0.21715,0.29444 -0.14192,-0.22326 -0.35018,-0.24656 -0.62498,-0.0699 -0.33077,0.21262 -0.34051,0.3112 -0.0493,0.49936 0.28835,0.18631 0.26962,0.31181 -0.0912,0.61129 -0.3823,0.31728 -0.49422,0.31338 -0.70814,-0.0247 -0.17643,-0.27881 -0.25539,-0.29468 -0.25836,-0.0519 -0.002,0.19227 -0.13757,0.34959 -0.30047,0.34959 -0.1629,0 -0.20518,-0.14724 -0.094,-0.32721 z M 36.159315,83.46914 c 0,-0.0769 -0.06295,-0.13983 -0.139839,-0.13983 -0.0769,0 -0.139839,0.0629 -0.139839,0.13983 0,0.0769 0.06295,0.13984 0.139839,0.13984 0.0769,0 0.139839,-0.063 0.139839,-0.13984 z m 18.365394,-2.28402 c -0.102546,-0.10255 -0.270354,-0.10255 -0.372901,0 -0.102546,0.10255 -0.01863,0.18645 0.186455,0.18645 0.205092,0 0.288993,-0.0839 0.186446,-0.18645 z m 4.288367,0.0466 c 0,-0.0769 -0.06295,-0.13984 -0.139839,-0.13984 -0.0769,0 -0.139839,0.063 -0.139839,0.13984 0,0.0769 0.06295,0.13984 0.139839,0.13984 0.0769,0 0.139839,-0.063 0.139839,-0.13984 z m 1.118703,0 c 0,-0.0769 -0.06295,-0.13984 -0.139838,-0.13984 -0.0769,0 -0.139839,0.063 -0.139839,0.13984 0,0.0769 0.06295,0.13984 0.139839,0.13984 0.0769,0 0.139838,-0.063 0.139838,-0.13984 z m 49.502661,-2.50058 c 0,-0.0679 -0.1453,-0.21313 -0.32289,-0.32288 -0.20005,-0.12365 -0.24697,-0.0767 -0.12333,0.12333 0.19925,0.32239 0.44622,0.43284 0.44622,0.19955 z M 16.581994,73.40081 c 0,-0.0769 -0.06295,-0.13984 -0.139838,-0.13984 -0.0769,0 -0.139839,0.063 -0.139839,0.13984 0,0.0769 0.06295,0.13983 0.139839,0.13983 0.0769,0 0.139838,-0.063 0.139838,-0.13983 z m -0.839025,-0.41952 c 0,-0.15382 -0.133283,-0.27968 -0.296184,-0.27968 -0.162901,0 -0.218403,0.12586 -0.123333,0.27968 0.09507,0.15382 0.228345,0.27968 0.296184,0.27968 0.06786,0 0.123333,-0.12586 0.123333,-0.27968 z M 80.068456,49.90802 c 0,-0.0769 -0.06295,-0.13984 -0.139839,-0.13984 -0.0769,0 -0.139839,0.0629 -0.139839,0.13984 0,0.0769 0.06295,0.13984 0.139839,0.13984 0.0769,0 0.139839,-0.0629 0.139839,-0.13984 z m 9.229312,-7.55126 c 0,-0.0769 -0.06295,-0.13983 -0.139839,-0.13983 -0.0769,0 -0.139839,0.0629 -0.139839,0.13983 0,0.0769 0.06295,0.13984 0.139839,0.13984 0.0769,0 0.139839,-0.0629 0.139839,-0.13984 z m 20.975702,-3.356108 c 0,-0.07691 -0.063,-0.139838 -0.13984,-0.139838 -0.0769,0 -0.13984,0.06292 -0.13984,0.139838 0,0.07691 0.063,0.139837 0.13984,0.139837 0.0769,0 0.13984,-0.06292 0.13984,-0.139837 z m -0.27968,-1.381875 c 0,-0.295191 -0.53673,-0.41921 -0.69637,-0.160905 -0.0966,0.15633 0.0205,0.284238 0.26035,0.284238 0.23981,0 0.43602,-0.0555 0.43602,-0.123333 z m -0.65258,-0.902147 c -0.10254,-0.102548 -0.27035,-0.102548 -0.3729,0 -0.10254,0.102548 -0.0186,0.186451 0.18646,0.186451 0.20509,0 0.28899,-0.0839 0.18644,-0.186451 z m 0.65258,0.04662 c 0,-0.07691 -0.063,-0.139838 -0.13984,-0.139838 -0.0769,0 -0.13984,0.06292 -0.13984,0.139838 0,0.07691 0.063,0.139837 0.13984,0.139837 0.0769,0 0.13984,-0.06292 0.13984,-0.139837 z M 96.84901,35.085189 c 0,-0.07691 -0.063,-0.139838 -0.13983,-0.139838 -0.0769,0 -0.13984,0.06292 -0.13984,0.139838 0,0.07691 0.063,0.139838 0.13984,0.139838 0.0769,0 0.13983,-0.06292 0.13983,-0.139838 z m 12.21253,-2.563697 c -0.10255,-0.102548 -0.18645,-0.01865 -0.18645,0.186451 0,0.205096 0.0839,0.288998 0.18645,0.18645 0.10254,-0.102547 0.10254,-0.270353 0,-0.372901 z m -7.59787,-0.652577 c 0.0951,-0.153822 0.10992,-0.279676 0.033,-0.279676 -0.0769,0 -0.21762,0.125854 -0.31269,0.279676 -0.0951,0.153822 -0.10991,0.279676 -0.033,0.279676 0.0769,0 0.21762,-0.125854 0.31269,-0.279676 z m 4.24176,-0.745803 c -0.10255,-0.102548 -0.27036,-0.102548 -0.37291,0 -0.10254,0.102548 -0.0186,0.186451 0.18645,0.186451 0.2051,0 0.289,-0.0839 0.18646,-0.186451 z m 1.1187,-0.279675 c -0.10255,-0.102548 -0.18645,-0.01865 -0.18645,0.18645 0,0.205095 0.0839,0.288999 0.18645,0.186451 0.10254,-0.102548 0.10254,-0.270354 0,-0.372901 z M 106.358,165.69389 c 0,-0.0769 0.063,-0.13984 0.13984,-0.13984 0.0769,0 0.13984,0.063 0.13984,0.13984 0,0.0769 -0.063,0.13984 -0.13984,0.13984 -0.0769,0 -0.13984,-0.0629 -0.13984,-0.13984 z m 38.95794,-1.74797 c -0.27242,-0.39956 -0.38129,-0.41976 -0.59291,-0.10994 -0.31464,0.46063 -1.80286,0.20365 -2.30174,-0.39747 -0.27179,-0.32748 -0.22377,-0.40154 0.26035,-0.40154 0.63539,0 0.79378,-0.40262 0.28265,-0.71851 -0.17102,-0.1057 -0.40237,-0.0442 -0.51412,0.13657 -0.1491,0.24125 -0.29579,0.21714 -0.55119,-0.0906 -0.36671,-0.44188 -0.16836,-1.56489 0.2764,-1.56489 0.14346,0 0.26083,-0.13328 0.26083,-0.29618 0,-0.16289 -0.12585,-0.2184 -0.27968,-0.12333 -0.15382,0.0951 -0.27967,0.0396 -0.27967,-0.12333 0,-0.1629 0.18878,-0.29618 0.41951,-0.29618 0.23074,0 0.41952,-0.18879 0.41952,-0.41952 0,-0.23073 0.22024,-0.42945 0.48943,-0.44159 0.28351,-0.0128 0.34456,-0.0807 0.14511,-0.16139 -0.23625,-0.0956 -0.10747,-0.43614 0.41022,-1.08495 0.51388,-0.64402 0.82071,-0.8386 0.96195,-0.61006 0.16124,0.2609 0.28205,0.26094 0.54281,1.8e-4 0.26075,-0.26075 0.24778,-0.44307 -0.0583,-0.81913 -0.34702,-0.4264 -0.33735,-0.46265 0.0815,-0.30578 0.33043,0.12375 0.43042,0.0613 0.32821,-0.20505 -0.0939,-0.24465 0.0881,-0.41632 0.50368,-0.4752 0.49645,-0.0703 0.62967,-0.24278 0.56211,-0.72765 -0.0487,-0.34951 0.0142,-0.61778 0.13983,-0.59615 0.64362,0.11083 0.97218,-0.0667 0.82644,-0.44642 -0.0885,-0.23073 -0.0274,-0.41952 0.13573,-0.41952 0.53835,0 1.55082,-0.97712 1.41979,-1.37023 -0.0777,-0.23309 -0.004,-0.30857 0.1868,-0.19078 0.36864,0.22784 6.11448,-5.62457 6.41895,-6.53801 0.0534,-0.16019 0.27538,-0.29126 0.4933,-0.29126 0.21792,0 0.3962,-0.11254 0.3962,-0.2501 0,-0.39427 1.58451,-1.98763 1.7811,-1.79104 0.0971,0.0971 0.17664,0.0227 0.17664,-0.16542 0,-0.18813 0.40561,-0.71252 0.90136,-1.16532 0.49575,-0.45279 0.80941,-0.82326 0.69703,-0.82326 -0.11238,0 0.14274,-0.39312 0.56694,-0.8736 0.4242,-0.48048 0.73619,-0.99474 0.69332,-1.14279 -0.0429,-0.14805 0.17596,-0.33558 0.48629,-0.41673 0.31033,-0.0812 0.50989,-0.23549 0.44347,-0.34296 -0.0664,-0.10747 0.1867,-0.55323 0.56249,-0.99058 0.3758,-0.43733 0.68327,-0.90886 0.68327,-1.04784 0,-0.13897 0.14724,-0.16168 0.3272,-0.0504 0.21735,0.13433 0.26958,0.0521 0.15555,-0.24511 -0.0944,-0.24603 -0.046,-0.4892 0.10754,-0.54039 0.15355,-0.0512 0.31199,-0.3165 0.35207,-0.58959 0.0401,-0.27309 0.2837,-0.74276 0.54139,-1.04371 0.25768,-0.30094 0.3914,-0.54717 0.29716,-0.54717 -0.0942,0 -0.009,-0.1959 0.18993,-0.43532 0.19871,-0.23943 0.40398,-0.8253 0.45616,-1.30196 0.0522,-0.47665 0.47136,-1.43502 0.9315,-2.12971 0.46015,-0.69469 0.83664,-1.48934 0.83664,-1.76588 0,-0.27653 0.27693,-1.03409 0.6154,-1.68347 0.33848,-0.64938 0.62727,-1.65307 0.64175,-2.23044 0.0151,-0.60058 0.24963,-1.2965 0.54819,-1.6264 0.28702,-0.31716 0.44472,-0.65378 0.35045,-0.74807 -0.0943,-0.0943 0.0113,-0.35421 0.23477,-0.57761 0.22341,-0.22341 0.4062,-0.65719 0.4062,-0.96396 0,-0.30677 0.13962,-0.81865 0.31027,-1.13751 0.17065,-0.31887 0.3445,-1.41182 0.38632,-2.42879 0.0419,-1.01696 0.10671,-1.88048 0.14419,-1.91894 0.0375,-0.0384 0.0839,-0.30228 0.10313,-0.58628 0.0192,-0.28401 0.2055,-0.72187 0.41394,-0.97303 0.28504,-0.34344 0.30863,-0.65851 0.0952,-1.27084 -0.19968,-0.57281 -0.19182,-0.90619 0.0266,-1.12454 0.1707,-0.17071 0.19426,-0.31037 0.0524,-0.31037 -0.1419,0 0.0238,-0.19739 0.36825,-0.43865 0.36602,-0.25637 0.54139,-0.57597 0.42201,-0.76911 -0.11234,-0.18175 -0.21919,-1.30371 -0.23743,-2.49324 -0.0272,-1.77217 0.0341,-2.10695 0.33941,-1.85358 0.25581,0.2123 0.3726,0.21601 0.3726,0.0118 0,-0.16358 -0.10223,-0.36059 -0.22717,-0.43781 -0.12494,-0.0772 -0.20128,-0.85589 -0.16963,-1.73037 0.0316,-0.87449 -0.0461,-1.95143 -0.17283,-2.3932 -0.14962,-0.5217 -0.12717,-0.80322 0.0641,-0.80322 0.18612,0 0.17008,-0.14978 -0.0436,-0.40726 -0.1859,-0.22399 -0.24812,-0.5527 -0.13826,-0.73046 0.10986,-0.17776 0.0263,-0.43305 -0.18567,-0.56731 -0.23962,-0.15177 -0.26254,-0.24575 -0.0606,-0.24841 0.17867,-0.002 0.28269,-0.22453 0.23116,-0.49372 -0.0515,-0.26919 -0.11939,-0.48943 -0.15079,-0.48943 -0.0314,0 -0.0924,-0.25171 -0.13549,-0.55936 -0.2575,-1.83721 -0.48822,-2.80687 -0.68528,-2.88009 -0.12334,-0.0458 -0.15984,-0.32967 -0.0811,-0.63076 0.0787,-0.30108 0.002,-0.71739 -0.1703,-0.92511 -0.32162,-0.38754 -0.59014,-1.62181 -0.6804,-3.12753 -0.0281,-0.4682 -0.27417,-1.19186 -0.5469,-1.60814 -0.35447,-0.54102 -0.39435,-0.75809 -0.13984,-0.76115 0.23776,-0.003 0.25635,-0.0725 0.056,-0.20976 -0.33989,-0.23274 -0.66666,-0.99807 -0.86017,-2.01467 -0.0723,-0.37979 -0.23531,-0.82027 -0.36225,-0.97887 -0.12695,-0.1586 -0.31827,-0.69739 -0.42517,-1.19731 -0.10689,-0.49992 -0.3102,-0.90895 -0.4518,-0.90895 -0.1416,0 -0.25746,-0.25566 -0.25746,-0.56813 0,-0.31247 -0.18109,-0.63762 -0.40242,-0.72255 -0.34011,-0.13051 -0.76186,-1.23911 -0.75741,-1.99085 7e-4,-0.11793 -0.18674,-0.42217 -0.41653,-0.67609 -0.31331,-0.3462 -0.33432,-0.51326 -0.084,-0.66797 0.24249,-0.14986 0.2092,-0.27604 -0.12162,-0.46117 -0.25048,-0.14018 -0.45543,-0.43346 -0.45543,-0.65172 0,-0.22203 -0.16959,-0.33176 -0.385,-0.2491 -0.34715,0.13322 -0.90891,-1.03377 -0.78236,-1.62524 0.0237,-0.11078 -0.21089,-0.33733 -0.52131,-0.50347 -0.31042,-0.16612 -0.49867,-0.40841 -0.41834,-0.53839 0.0803,-0.12999 -0.0499,-0.31157 -0.28957,-0.40351 -0.23959,-0.0919 -0.36591,-0.27997 -0.28071,-0.41782 0.0852,-0.13787 -0.36181,-0.78311 -0.99335,-1.43387 -0.88784,-0.91485 -1.06167,-1.23806 -0.76646,-1.42509 0.29145,-0.18464 0.29704,-0.2429 0.0236,-0.24616 -0.40411,-0.005 -2.19381,-1.94911 -2.09471,-2.27564 0.0354,-0.1164 -0.18491,-0.29073 -0.48943,-0.38738 -0.30452,-0.0966 -0.55367,-0.35174 -0.55367,-0.56686 0,-0.21512 -0.88098,-1.26342 -1.95773,-2.32954 -1.07676,-1.06613 -1.95774,-2.09072 -1.95774,-2.27687 0,-0.18615 -0.18487,-0.2675 -0.41085,-0.18079 -0.25948,0.0996 -0.59082,-0.14701 -0.89932,-0.66927 -0.26867,-0.45481 -0.5872,-0.82692 -0.70785,-0.82692 -0.12067,0 -0.21938,-0.18879 -0.21938,-0.41952 0,-0.40953 -0.31696,-0.53792 -1.07331,-0.43476 -0.24756,0.0338 -0.31694,-0.12913 -0.2051,-0.48153 0.14275,-0.44974 0.0374,-0.52473 -0.67759,-0.48219 -0.86417,0.0514 -1.57709,-0.46616 -1.2875,-0.93472 0.0884,-0.14307 -0.0972,-0.32759 -0.41255,-0.41005 -0.34725,-0.0908 -0.63272,0.005 -0.724,0.24275 -0.23048,0.60063 -1.21254,-0.0409 -1.21776,-0.79553 -0.003,-0.45632 -0.0679,-0.51904 -0.24582,-0.23819 -0.13284,0.20968 -0.28824,0.26806 -0.34531,0.12973 -0.0571,-0.13832 -0.49646,-0.52706 -0.9764,-0.86385 -0.52245,-0.36662 -0.94051,-0.95177 -1.04179,-1.4582 -0.17925,-0.89627 -1.30186,-1.2639 -1.30186,-0.42633 0,0.62441 -0.47117,0.50724 -0.64581,-0.16059 -0.0834,-0.31906 -0.41276,-0.64838 -0.73181,-0.73181 -0.31907,-0.0834 -0.58011,-0.32581 -0.58011,-0.5386 0,-0.21279 -0.13329,-0.3869 -0.29618,-0.3869 -0.1629,0 -0.22378,-0.11715 -0.13528,-0.26035 0.0885,-0.14319 0.0472,-0.33058 -0.0916,-0.41642 -0.13889,-0.0858 -0.33542,-0.59795 -0.43674,-1.13803 -0.10132,-0.54008 -0.33583,-0.98388 -0.52115,-0.98624 -0.23085,-0.003 -0.21746,-0.08 0.0426,-0.24471 0.21161,-0.13409 0.26316,-0.31231 0.11655,-0.40292 -0.30761,-0.19012 -0.11874,-1.86517 0.2103,-1.86517 0.12282,0 0.18999,-0.30358 0.14925,-0.67462 -0.0555,-0.50571 0.0328,-0.6336 0.35286,-0.5108 0.31157,0.11957 0.37839,0.0374 0.24729,-0.30424 -0.13085,-0.34101 -0.0285,-0.46807 0.37696,-0.46807 0.32682,0 0.69224,-0.29775 0.88522,-0.72129 0.2481,-0.544527 0.48711,-0.690993 0.97531,-0.597667 0.51277,0.09802 0.58278,0.04664 0.33811,-0.248175 -0.5456,-0.657406 -0.1691,-0.970675 0.65327,-0.543557 0.42301,0.219703 0.7691,0.341094 0.7691,0.26976 0,-0.07133 0.31441,0.07631 0.69867,0.328082 0.65941,0.432063 1.65568,0.438481 2.65745,0.01712 0.23073,-0.09705 0.6083,-0.05192 0.83903,0.100284 0.36822,0.242904 0.36921,0.309072 0.008,0.541207 -0.65259,0.419496 -0.13716,0.658896 1.59863,0.742496 1.82731,0.088 3.25991,0.61058 4.47357,1.6318 0.45868,0.38596 0.91141,0.62432 1.00604,0.52968 0.0946,-0.0946 0.25143,0.0347 0.34842,0.28747 0.097,0.25275 0.30116,0.45955 0.45372,0.45955 0.15256,0 0.63008,0.37756 1.06116,0.83902 0.43107,0.46147 0.89059,0.84081 1.02115,0.84298 0.13056,0.002 0.76906,0.47412 1.41887,1.04878 0.64982,0.57466 1.68969,1.40023 2.31083,1.8346 0.62114,0.43437 1.32132,1.16102 1.55597,1.61478 0.23464,0.45375 1.05981,1.41983 1.83369,2.14683 0.77388,0.72701 1.98045,1.85835 2.68126,2.51409 0.84645,0.79201 1.27422,1.42406 1.27422,1.88271 0,0.37975 0.10867,0.62329 0.24151,0.54119 0.13283,-0.0821 0.17379,0.0272 0.091,0.24294 -0.0855,0.2228 0.30849,0.85119 0.91216,1.45486 0.58446,0.58446 1.07062,1.13816 1.08035,1.23046 0.0748,0.70906 1.46018,2.83488 2.01102,3.08586 0.38251,0.17428 0.62116,0.47252 0.54238,0.67782 -0.0774,0.20163 0.16636,0.59717 0.54163,0.87899 0.37528,0.28182 0.65671,0.71173 0.62543,0.95536 -0.0914,0.71182 0.6569,2.01798 1.06615,1.86094 0.34046,-0.13065 0.47953,0.23483 0.44483,1.16903 -0.007,0.19228 0.0989,0.3496 0.23562,0.3496 0.13673,0 0.2486,0.19621 0.2486,0.43602 0,0.23981 0.11561,0.36457 0.25692,0.27724 0.14131,-0.0873 0.34009,0.21987 0.44173,0.68268 0.10165,0.46281 0.29121,0.84146 0.42125,0.84146 0.13003,0 0.19549,0.4405 0.14545,0.97888 -0.05,0.53837 0.0198,0.97886 0.15518,0.97886 0.33149,0 1.39839,2.12203 1.17779,2.34262 -0.0959,0.096 0.004,0.17447 0.22175,0.17447 0.23663,0 0.3962,0.28284 0.3962,0.70227 0,0.43102 -0.12953,0.65258 -0.33535,0.5736 -0.20089,-0.0771 -0.273,0.0338 -0.17984,0.27658 0.0855,0.2229 0.26396,0.40527 0.3965,0.40527 0.13254,0 0.17351,0.17582 0.091,0.39071 -0.0825,0.21489 0.16912,0.68684 0.55906,1.04878 0.58083,0.53913 0.71829,0.94427 0.76039,2.2412 0.0353,1.08676 0.15505,1.54335 0.38197,1.45627 0.18181,-0.0698 0.354,0.0359 0.38264,0.23477 0.0286,0.1989 0.0916,0.67627 0.13988,1.06083 0.0483,0.38455 0.18156,0.98673 0.29615,1.33818 0.11459,0.35144 0.271,1.10657 0.34759,1.67805 0.25453,1.89917 0.30295,2.15456 0.49402,2.60547 0.10435,0.24624 0.16855,0.56088 0.14268,0.6992 -0.0258,0.13831 -0.0164,0.34587 0.021,0.46124 0.0374,0.11536 0.0995,0.33561 0.138,0.48943 0.0385,0.15382 0.10112,0.31114 0.13926,0.34959 0.0381,0.0385 0.0952,0.82505 0.12688,1.74798 0.0316,0.92293 0.15053,1.96123 0.26416,2.30733 0.1215,0.37011 0.0917,0.62927 -0.0724,0.62927 -0.17339,0 -0.19295,0.30003 -0.0517,0.79262 0.13375,0.46634 0.11115,1.00022 -0.0549,1.29691 -0.21647,0.38681 -0.19875,0.45271 0.076,0.28287 0.24676,-0.1525 0.28962,-0.11035 0.13772,0.13542 -0.28642,0.46345 -0.35205,8.13226 -0.0711,8.30581 0.11787,0.0728 0.13361,0.26298 0.035,0.4226 -0.11853,0.19179 -0.25102,0.17426 -0.39066,-0.0517 -0.11716,-0.18959 -0.2185,0.18001 -0.22746,0.82964 -0.009,0.64435 -0.15504,1.33888 -0.32476,1.54338 -0.22846,0.27527 -0.21479,0.41066 0.0526,0.52131 0.26968,0.11156 0.23294,0.25346 -0.1449,0.55969 -0.33027,0.26767 -0.4008,0.47536 -0.20296,0.59763 0.16676,0.10307 0.24757,0.52418 0.17957,0.9358 -0.068,0.41163 -0.13399,0.85022 -0.14663,0.97467 -0.0127,0.12444 -0.14823,0.14887 -0.30127,0.0543 -0.16554,-0.1023 -0.28147,0.2593 -0.28614,0.89245 -0.012,1.62127 -0.11603,2.42778 -0.36291,2.8124 -0.12342,0.19227 -0.14661,0.47545 -0.0515,0.62927 0.0951,0.15382 0.0385,0.27968 -0.12569,0.27968 -0.19491,0 -0.17637,0.20687 0.0534,0.59589 0.28118,0.47605 0.28166,0.62136 0.002,0.7225 -0.19228,0.0696 -0.3496,0.30489 -0.3496,0.52281 0,0.21791 -0.12585,0.39621 -0.27967,0.39621 -0.15383,0 -0.27968,0.13328 -0.27968,0.29618 0,0.16289 0.12585,0.2184 0.27968,0.12332 0.15382,-0.0951 0.27967,-0.05 0.27967,0.10003 0,0.15008 -0.15575,0.3248 -0.34611,0.38825 -0.20837,0.0694 -0.33394,0.57959 -0.31553,1.28185 0.0168,0.64156 -0.10011,1.16648 -0.25985,1.16648 -0.15974,0 -0.21253,0.0779 -0.1173,0.17313 0.0952,0.0952 -0.0108,0.35708 -0.23563,0.5819 -0.22483,0.22482 -0.34252,0.51597 -0.26154,0.647 0.081,0.13103 -0.16557,0.94556 -0.5479,1.81007 -0.38232,0.86451 -0.7306,1.78545 -0.77393,2.04654 -0.0434,0.2611 -0.36198,1.02834 -0.70808,1.70499 -0.34609,0.67666 -0.62927,1.37232 -0.62927,1.54591 0,0.1736 -0.21736,0.62595 -0.48302,1.00523 -0.26565,0.37929 -0.509,0.86664 -0.54075,1.08302 -0.0318,0.21638 -0.17312,0.46894 -0.31414,0.56125 -0.3744,0.24508 -0.97158,1.45348 -1.04461,2.11382 -0.1089,0.98446 -0.12837,1.02745 -0.39169,0.86471 -0.39474,-0.24396 -1.14125,0.64757 -1.14125,1.36294 0,0.35076 -0.37757,1.03282 -0.83903,1.5157 -0.46146,0.48287 -0.83903,1.01239 -0.83903,1.17669 0,0.1643 -0.11267,0.22909 -0.25037,0.14399 -0.20831,-0.12875 -0.47245,0.21959 -0.7285,0.96076 -0.27811,0.80502 -0.63476,1.34174 -1.17642,1.77036 -0.35573,0.28151 -0.57525,0.62761 -0.48779,0.76911 0.0874,0.1415 -0.0446,0.25728 -0.29352,0.25728 -0.24888,0 -0.37474,0.12586 -0.27967,0.27968 0.0951,0.15382 -0.0234,0.27968 -0.26318,0.27968 -0.23981,0 -0.4068,0.0944 -0.37109,0.20975 0.15044,0.48606 -3.63155,4.34082 -4.02207,4.09946 -0.1309,-0.0809 -0.23799,-0.0325 -0.23799,0.10762 0,0.4384 -1.79595,2.15679 -2.16546,2.07194 -0.1934,-0.0444 -0.35163,0.10642 -0.35163,0.33517 0,0.22875 -0.23365,0.58037 -0.51922,0.78137 -0.28558,0.20099 -0.6087,0.64862 -0.71804,0.99472 -0.1132,0.3583 -0.42474,0.62927 -0.72346,0.62927 -0.28855,0 -0.7074,0.26091 -0.93076,0.57981 -0.22335,0.31889 -0.6224,0.61155 -0.88675,0.65034 -0.26437,0.0388 -0.68882,0.34652 -0.94325,0.68382 -0.25457,0.33749 -0.86473,0.66416 -1.35686,0.72645 -0.84773,0.10729 -2.41431,1.07691 -3.51146,2.1734 -0.27518,0.27501 -0.63027,0.50003 -0.78909,0.50003 -0.15881,0 -0.48477,0.19602 -0.72435,0.4356 -0.23957,0.23958 -0.61271,0.36763 -0.82918,0.28456 -0.21648,-0.0831 -0.85912,0.0985 -1.4281,0.40343 -0.56898,0.30495 -1.25662,0.55447 -1.52809,0.55447 -0.27146,0 -0.49357,0.12585 -0.49357,0.27968 0,0.45558 -0.67537,0.3188 -1.03574,-0.20977 z m -3.25263,-2.2141 c -0.10254,-0.10255 -0.18645,-0.0186 -0.18645,0.18645 0,0.2051 0.0839,0.289 0.18645,0.18645 0.10255,-0.10254 0.10255,-0.27035 0,-0.3729 z m 17.89926,-5.31385 c -0.10254,-0.10254 -0.27035,-0.10254 -0.3729,0 -0.10254,0.10255 -0.0186,0.18646 0.18646,0.18646 0.20509,0 0.28899,-0.0839 0.18644,-0.18646 z m 9.88189,-33.79418 c 0,-0.0769 -0.0629,-0.13984 -0.13983,-0.13984 -0.0769,0 -0.13984,0.0629 -0.13984,0.13984 0,0.0769 0.0629,0.13984 0.13984,0.13984 0.0769,0 0.13983,-0.063 0.13983,-0.13984 z m 13.9838,-10.62769 c 0,-0.0769 -0.063,-0.13984 -0.13983,-0.13984 -0.0769,0 -0.13984,0.063 -0.13984,0.13984 0,0.0769 0.063,0.13983 0.13984,0.13983 0.0769,0 0.13983,-0.0629 0.13983,-0.13983 z m -4.75449,-36.91724 c 0,-0.0769 -0.063,-0.13984 -0.13984,-0.13984 -0.0769,0 -0.13984,0.063 -0.13984,0.13984 0,0.0769 0.063,0.13984 0.13984,0.13984 0.0769,0 0.13984,-0.063 0.13984,-0.13984 z m -1.67805,-3.63579 c 0,-0.0769 -0.063,-0.13984 -0.13984,-0.13984 -0.0769,0 -0.13984,0.063 -0.13984,0.13984 0,0.0769 0.063,0.13984 0.13984,0.13984 0.0769,0 0.13984,-0.063 0.13984,-0.13984 z m -29.7855,-17.47975 c -0.0951,-0.15382 -0.29128,-0.27968 -0.43602,-0.27968 -0.14475,0 -0.26317,0.12586 -0.26317,0.27968 0,0.15382 0.19621,0.27968 0.43602,0.27968 0.23981,0 0.35823,-0.12586 0.26317,-0.27968 z m 0.0466,-13.051548 c -0.10255,-0.102549 -0.18645,-0.01865 -0.18645,0.18645 0,0.205095 0.0839,0.288999 0.18645,0.186451 0.10254,-0.102548 0.10254,-0.270354 0,-0.372901 z m -3.82224,0.04662 c 0,-0.07691 -0.063,-0.139838 -0.13984,-0.139838 -0.0769,0 -0.13984,0.06292 -0.13984,0.139838 0,0.07691 0.063,0.139838 0.13984,0.139838 0.0769,0 0.13984,-0.06292 0.13984,-0.139838 z m -10.06832,95.509358 c -0.23074,-0.14911 -0.29367,-0.27704 -0.13984,-0.28429 0.15382,-0.007 0.0468,-0.18958 -0.23777,-0.40518 -0.28459,-0.21561 -0.43448,-0.52624 -0.33308,-0.6903 0.10138,-0.16406 0.0534,-0.29829 -0.1066,-0.29829 -0.17467,0 -0.25102,-0.53093 -0.19104,-1.32845 0.12348,-1.64179 0.43301,-2.62989 0.76045,-2.42752 0.13633,0.0843 0.24788,-0.043 0.24788,-0.28283 0,-0.2398 0.20975,-0.43601 0.46612,-0.43601 0.25637,0 0.38332,-0.0828 0.2821,-0.18403 -0.10121,-0.10121 -0.0438,-0.35292 0.12748,-0.55935 0.17132,-0.20643 0.21774,-0.37532 0.10316,-0.37532 -0.11458,0 -0.0516,-0.18879 0.13984,-0.41952 0.19149,-0.23073 0.61593,-0.42334 0.94319,-0.42802 0.52925,-0.008 0.54221,-0.0393 0.11721,-0.28707 -0.638,-0.37196 -0.32714,-1.17406 0.36933,-0.95301 0.39391,0.12502 0.48288,0.058 0.35738,-0.26899 -0.0992,-0.25847 0.0152,-0.50539 0.28144,-0.60756 0.24669,-0.0947 0.44853,-0.35642 0.44853,-0.58169 0,-0.49961 0.67189,-1.20864 1.14534,-1.20864 0.19045,0 0.26663,-0.0796 0.1693,-0.17697 -0.0973,-0.0973 0.1334,-0.4211 0.51274,-0.71949 0.37934,-0.29839 0.68971,-0.72217 0.68971,-0.94174 0,-0.21956 0.12897,-0.39921 0.2866,-0.39921 0.15763,0 0.40744,-0.31786 0.55515,-0.70635 0.1477,-0.3885 0.45851,-0.77925 0.69066,-0.86834 0.23216,-0.0891 0.35248,-0.27464 0.26737,-0.41235 -0.0851,-0.1377 -0.0312,-0.25037 0.11975,-0.25037 0.15097,0 0.42266,-0.44892 0.60374,-0.9976 0.18108,-0.54869 0.39724,-0.9296 0.48035,-0.84649 0.0831,0.0831 0.36987,-0.25454 0.63723,-0.75037 0.34684,-0.64321 0.39571,-0.96036 0.1706,-1.10696 -0.19992,-0.1302 -0.13814,-0.20704 0.1686,-0.20976 0.50121,-0.005 0.96199,-1.15261 0.65918,-1.64255 -0.0923,-0.14943 -0.0203,-0.3209 0.16013,-0.38103 0.18041,-0.0602 0.32421,-0.54284 0.31954,-1.07267 -0.005,-0.52984 0.11426,-1.11902 0.26429,-1.3093 0.15003,-0.19028 0.19341,-0.66223 0.0964,-1.04878 -0.097,-0.38655 -0.0691,-0.70282 0.062,-0.70282 0.27785,0 0.29162,-0.0768 0.47587,-2.65693 0.0769,-1.07675 0.19624,-2.11101 0.26523,-2.29837 0.069,-0.18735 0.022,-0.40459 -0.10452,-0.48276 -0.33016,-0.20404 -0.0212,-1.55302 0.35691,-1.55812 0.19004,-0.002 0.16542,-0.10034 -0.0615,-0.24412 -0.27716,-0.17563 -0.30269,-0.38141 -0.0954,-0.7688 0.2051,-0.38324 0.17454,-0.67744 -0.11094,-1.06786 -0.29707,-0.40626 -0.31244,-0.58932 -0.0625,-0.74381 0.23486,-0.14515 0.24597,-0.31314 0.0381,-0.57585 -0.16142,-0.204 -0.30167,-0.55969 -0.31168,-0.79043 -0.0499,-1.15202 -0.40347,-2.95849 -0.63315,-3.23524 -0.14249,-0.17169 -0.17931,-0.39194 -0.0818,-0.48944 0.0975,-0.0975 0.0346,-0.3492 -0.13984,-0.55935 -0.1744,-0.21015 -0.23733,-0.46186 -0.13984,-0.55935 0.0975,-0.0975 0.0181,-0.36909 -0.17651,-0.60354 -0.27975,-0.33708 -0.28092,-0.42627 -0.006,-0.42627 0.27311,0 0.27531,-0.0878 0.0102,-0.40726 -0.18589,-0.224 -0.2672,-0.52181 -0.18068,-0.66182 0.0865,-0.14 -0.077,-0.46658 -0.36333,-0.72573 -0.28636,-0.25916 -0.59826,-0.85923 -0.69312,-1.33349 -0.0948,-0.47426 -0.4322,-1.08757 -0.74966,-1.3629 -0.31746,-0.27533 -0.58597,-0.60453 -0.59668,-0.73155 -0.0396,-0.46983 -0.60024,-1.48948 -0.81892,-1.48948 -0.1243,0 -0.15793,-0.17741 -0.0747,-0.39424 0.0911,-0.23752 -0.0807,-0.46789 -0.43236,-0.57949 -0.32099,-0.10188 -0.5093,-0.30552 -0.41844,-0.45252 0.0908,-0.14701 -0.23527,-0.64137 -0.72471,-1.09857 -0.48945,-0.45721 -0.79172,-0.83129 -0.67173,-0.83129 0.11999,0 -0.0566,-0.2925 -0.39249,-0.65002 -0.33587,-0.35751 -0.54582,-0.71487 -0.46655,-0.79413 0.0793,-0.0793 -0.10838,-0.3726 -0.41696,-0.65187 -0.30859,-0.27927 -0.56107,-0.67703 -0.56107,-0.88392 0,-0.20689 -0.0944,-0.34782 -0.20975,-0.31317 -0.11537,0.0346 -0.57424,-0.27998 -1.01971,-0.69918 -0.44547,-0.41921 -0.71324,-0.7622 -0.59502,-0.7622 0.1182,0 0.0628,-0.18327 -0.12308,-0.40726 -0.1859,-0.224 -0.26242,-0.52957 -0.17002,-0.67906 0.0924,-0.14949 -0.0713,-0.34772 -0.36365,-0.44052 -0.75623,-0.24002 -1.20566,-2.11922 -0.67765,-2.83346 0.21713,-0.29371 0.34007,-0.82712 0.27318,-1.18535 -0.12426,-0.66561 -0.0613,-0.71521 1.28373,-1.01026 0.66079,-0.14495 0.73306,-0.24893 0.48943,-0.70415 -0.42477,-0.79368 -0.34739,-0.9901 0.20359,-0.51689 0.87424,0.75084 1.46831,0.83073 1.46831,0.19747 0,-0.43122 0.15324,-0.54823 0.62927,-0.48053 0.39845,0.0567 0.61501,0.26899 0.59042,0.57881 -0.0421,0.53011 0.85867,0.69322 1.15755,0.20962 0.27649,-0.44736 1.25854,-0.32537 1.25854,0.15635 0,0.23981 0.12586,0.35823 0.27967,0.26316 0.15383,-0.0951 0.27968,0.0234 0.27968,0.26317 0,0.44012 0.27982,0.54405 1.20559,0.44778 0.34397,-0.0358 0.47852,0.10552 0.41951,0.44053 -0.0606,0.34387 0.17174,0.56925 0.76731,0.7444 0.53401,0.15704 1.16298,0.7047 1.67805,1.4611 0.45313,0.66546 0.94973,1.18919 1.10355,1.16388 0.15382,-0.0253 0.27968,0.20567 0.27968,0.51331 0,0.30765 0.15063,0.68521 0.33473,0.83904 0.18411,0.15381 0.66208,0.9392 1.06216,1.74528 0.40008,0.80609 0.98389,1.60287 1.29735,1.77063 0.31346,0.16777 0.50035,0.37461 0.41531,0.45966 -0.085,0.085 0.093,0.46938 0.39556,0.85408 0.30261,0.38471 0.55019,0.80397 0.55019,0.9317 0,0.12774 0.36531,0.80828 0.8118,1.51232 0.44648,0.70404 1.03259,2.1872 1.30243,3.29591 0.26986,1.10871 0.648,2.26755 0.84032,2.57519 0.43872,0.7018 1.29646,4.85733 1.07618,5.21376 -0.0899,0.14544 -0.0334,0.42109 0.12551,0.61257 0.15892,0.19148 0.32022,0.87816 0.35844,1.52596 0.0382,0.64781 0.16134,1.17782 0.27359,1.17782 0.11226,0 0.1714,1.16416 0.13142,2.58701 -0.04,1.42285 0.035,2.88548 0.16673,3.25029 0.15344,0.42504 0.125,0.80119 -0.0792,1.04718 -0.17523,0.21114 -0.25774,0.70225 -0.18336,1.09136 0.0744,0.38911 0.0555,0.75676 -0.0419,0.81699 -0.0975,0.0603 -0.16169,0.90675 -0.14274,1.88114 0.0189,0.97439 -0.11483,2.08626 -0.29731,2.47081 -0.18248,0.38456 -0.35795,1.18501 -0.38994,1.77878 -0.0319,0.59379 -0.24323,1.26467 -0.46941,1.49086 -0.22619,0.22618 -0.33822,0.52941 -0.24896,0.67384 0.0893,0.14443 0.002,0.73209 -0.19459,1.30592 -0.1963,0.57382 -0.33109,1.1377 -0.29956,1.25307 0.0316,0.11536 -0.0484,0.20975 -0.17759,0.20975 -0.1292,0 -0.40279,0.53488 -0.60798,1.18863 -0.20519,0.65374 -0.46721,1.29835 -0.58226,1.43245 -0.11506,0.13412 -0.15543,0.38583 -0.0897,0.55936 0.0657,0.17353 -0.19583,0.68119 -0.58121,1.12812 -0.38537,0.44694 -0.70067,0.98577 -0.70067,1.1974 0,0.21164 -0.18879,0.45724 -0.41952,0.54578 -0.23073,0.0885 -0.41952,0.35333 -0.41952,0.58842 0,0.23509 -0.31342,0.71791 -0.69649,1.07293 -0.41995,0.3892 -0.63016,0.81835 -0.52943,1.08086 0.11863,0.30915 -0.004,0.43536 -0.42221,0.43536 -0.38237,0 -0.58927,0.17788 -0.58927,0.50662 0,0.27864 -0.25171,0.77679 -0.55936,1.10701 -0.30764,0.33021 -0.55935,0.73151 -0.55935,0.89177 0,0.16025 -0.19846,0.29137 -0.44102,0.29137 -0.47764,0 -2.25686,1.64774 -2.15166,1.99267 0.0354,0.11586 -0.18492,0.28972 -0.48943,0.38637 -0.30453,0.0967 -0.55367,0.2931 -0.55367,0.43656 0,0.14346 -0.0944,0.23099 -0.20976,0.19451 -0.11537,-0.0365 -0.7761,0.32385 -1.4683,0.80071 -1.4929,1.02849 -2.45366,1.39211 -4.12522,1.56132 -0.3461,0.035 -0.62927,0.17557 -0.62927,0.3123 0,0.13672 -0.18878,0.17615 -0.41952,0.0876 -0.23073,-0.0885 -0.41951,-0.06 -0.41951,0.0633 0,0.12336 -0.37756,0.22429 -0.83903,0.22429 -0.51274,0 -0.83903,-0.14502 -0.83903,-0.3729 0,-0.2051 -0.12191,-0.3729 -0.2709,-0.3729 -0.14899,0 -0.19845,0.18878 -0.10991,0.41951 0.18724,0.48795 0.11469,0.51008 -0.45821,0.13984 z m 2.42385,-8.85641 c -0.10255,-0.10255 -0.27035,-0.10255 -0.3729,0 -0.10255,0.10255 -0.0186,0.18645 0.18645,0.18645 0.2051,0 0.289,-0.0839 0.18645,-0.18645 z m 0.93226,-48.61702 c 0,-0.0769 -0.063,-0.13983 -0.13984,-0.13983 -0.0769,0 -0.13984,0.0629 -0.13984,0.13983 0,0.0769 0.0629,0.13984 0.13984,0.13984 0.0769,0 0.13984,-0.0629 0.13984,-0.13984 z m 1.39838,-8.25044 c 0,-0.30764 -0.0483,-0.55935 -0.10722,-0.55935 -0.059,0 -0.17305,0.25171 -0.2535,0.55935 -0.0804,0.30764 -0.0322,0.55935 0.10722,0.55935 0.13942,0 0.2535,-0.25171 0.2535,-0.55935 z m 44.74816,44.60833 c 0,-0.0769 0.063,-0.13984 0.13984,-0.13984 0.0769,0 0.13984,0.063 0.13984,0.13984 0,0.0769 -0.063,0.13984 -0.13984,0.13984 -0.0769,0 -0.13984,-0.063 -0.13984,-0.13984 z M 40.494298,83.88865 c -0.09507,-0.15382 -0.03956,-0.27967 0.123333,-0.27967 0.162901,0 0.296176,0.12585 0.296176,0.27967 0,0.15383 -0.0555,0.27968 -0.123334,0.27968 -0.06786,0 -0.201113,-0.12585 -0.296175,-0.27968 z m 1.258542,-0.69918 c 0,-0.0769 0.06295,-0.13984 0.139839,-0.13984 0.0769,0 0.139831,0.063 0.139831,0.13984 0,0.0769 -0.06295,0.13984 -0.139831,0.13984 -0.0769,0 -0.139839,-0.063 -0.139839,-0.13984 z M 13.505554,72.84145 c 0,-0.0769 0.06295,-0.13984 0.139839,-0.13984 0.0769,0 0.139839,0.063 0.139839,0.13984 0,0.0769 -0.06295,0.13984 -0.139839,0.13984 -0.0769,0 -0.139839,-0.063 -0.139839,-0.13984 z M 135.27777,70.70067 c -0.12365,-0.20005 -0.0767,-0.24697 0.12333,-0.12333 0.17758,0.10975 0.32288,0.25505 0.32288,0.32289 0,0.23328 -0.24696,0.12284 -0.44621,-0.19956 z m 4.082,-0.23646 c 0,-0.15383 0.13329,-0.27968 0.29619,-0.27968 0.1629,0 0.21839,0.12585 0.12333,0.27968 -0.0951,0.15382 -0.22835,0.27967 -0.29618,0.27967 -0.0679,0 -0.12334,-0.12585 -0.12334,-0.27967 z m -2.3653,-0.26035 c -0.0885,-0.1432 -0.033,-0.33941 0.12334,-0.43603 0.15633,-0.0966 0.28423,0.0205 0.28423,0.26035 0,0.49127 -0.16782,0.5636 -0.40757,0.17568 z M 70.279795,56.4804 c 0,-0.15382 0.125855,-0.27967 0.279678,-0.27967 0.153816,0 0.27967,0.12585 0.27967,0.27967 0,0.15383 -0.125854,0.27968 -0.27967,0.27968 -0.153823,0 -0.279678,-0.12585 -0.279678,-0.27968 z m 4.195136,-3.07643 c 0,-0.15382 0.125854,-0.27968 0.279678,-0.27968 0.153823,0 0.279678,0.12586 0.279678,0.27968 0,0.15382 -0.125855,0.27967 -0.279678,0.27967 -0.153824,0 -0.279678,-0.12585 -0.279678,-0.27967 z m 68.392739,-1.65873 c -0.19104,-0.30911 0.25015,-0.64288 0.50839,-0.38463 0.26592,0.26592 0.21636,0.64498 -0.0843,0.64498 -0.14474,0 -0.33557,-0.11716 -0.42407,-0.26035 z m 6.15749,-10.285193 c -0.23099,-0.601955 -0.10634,-0.66206 0.48153,-0.232197 0.41022,0.299961 0.42642,0.390735 0.0926,0.51883 -0.22286,0.0855 -0.48074,-0.04323 -0.57415,-0.286633 z m -38.75169,-7.07405 c 0,-0.205096 0.0839,-0.288998 0.18645,-0.18645 0.10254,0.102547 0.10254,0.270353 0,0.372901 -0.10255,0.102548 -0.18645,0.01865 -0.18645,-0.186451 z"
       id="path1" /></g></svg>
